<?xml version="1.0" standalone="no"?><svg xmlns="http://www.w3.org/2000/svg" viewBox="0 0 1440 320"><path fill="#273036" fill-opacity="1" d="M0,128L15,154.7C30,181,60,235,90,261.3C120,288,150,288,180,250.7C210,213,240,139,270,122.7C300,107,330,149,360,165.3C390,181,420,171,450,186.7C480,203,510,245,540,224C570,203,600,117,630,90.7C660,64,690,96,720,106.7C750,117,780,107,810,117.3C840,128,870,160,900,149.3C930,139,960,85,990,90.7C1020,96,1050,160,1080,181.3C1110,203,1140,181,1170,197.3C1200,213,1230,267,1260,288C1290,309,1320,299,1350,266.7C1380,235,1410,181,1425,154.7L1440,128L1440,320L1425,320C1410,320,1380,320,1350,320C1320,320,1290,320,1260,320C1230,320,1200,320,1170,320C1140,320,1110,320,1080,320C1050,320,1020,320,990,320C960,320,930,320,900,320C870,320,840,320,810,320C780,320,750,320,720,320C690,320,660,320,630,320C600,320,570,320,540,320C510,320,480,320,450,320C420,320,390,320,360,320C330,320,300,320,270,320C240,320,210,320,180,320C150,320,120,320,90,320C60,320,30,320,15,320L0,320Z"></path></svg>